<?xml version="1.0" encoding="UTF-8"?>
<svg xmlns="http://www.w3.org/2000/svg" viewBox="0 0 300 300">
  <defs>
    <style>
      .cls-1 {
        fill: #fff;
      }

      .cls-2 {
        fill: #ff8b00;
      }

      .cls-3 {
        fill: #ffe600;
      }

      .cls-4 {
        fill: #ff5b00;
      }

      .cls-5 {
        fill: #ffb600;
      }
    </style>
  </defs>
  <g id="Calque_7" data-name="Calque 7">
    <path class="cls-4" d="M214.15,117.32c-43.1,49.22-86.2,98.43-129.3,147.65-1.4,1.32-2.96,2.67-4.68,4-4.89,3.78-9.73,6.37-13.89,8.15l3.51-42.05,120.63-138.43,23.73,20.68Z"/>
  </g>
  <g id="Calque_1_-_copie_4" data-name="Calque 1 - copie 4">
    <g id="Calque_8" data-name="Calque 8">
      <path class="cls-1" d="M264.26,136.04c0,52.16,0,117.32,0,117.32-.64,11.05-10.85,17.73-22.7,19.55-18.75,2.89-32.04-8.98-32.6-9.56-44.9-45.58-89.8-91.15-134.7-136.73-.29-.32-1.18-1.2-2.64-1.48-1.18-.23-2.13.05-2.55.21-.31.14-1.34.66-1.93,1.86-.43.89-.41,1.71-.37,2.08v128.3c0,8.63-10.87,15.93-23.74,15.93s-23.32-7.14-23.32-15.93V76.11c0-11.12,13.1-20.16,29.21-20.16,11.66,0,20.83,6.47,25.68,10.49,21.36,17.73,69.69,66.03,131.21,132.28.54.43,1.8,1.31,3.68,1.58,1.87.27,3.33-.23,3.97-.48.69-.38,1.49-.97,2.07-1.9,1.01-1.62.79-3.41.76-3.76-.14-1.66.02-18.52.37-45.53-3.81,1.31-7.33,1.93-10.36,2.12v34.09L82.14,59.16c-20.86-23.76-72.18-15.25-72.96,16.95,0,0,0,181.48,0,181.48,1.34,35.37,66.56,34.69,68.08,0v-112.95l124.13,125.99c7.98,8.51,20.1,13.39,33.25,13.39,22.5,0,40.13-13.47,40.13-30.67v-121.03c-3.71,1.55-7.38,2.78-10.51,3.71Z"/>
    </g>
    <g>
      <path class="cls-4" d="M254.02,16.14c-2.44.22-4.74.43-4.98,1.43-.21.9,1.32,2.01,2.17,2.57,2.9,2.71,5.8,5.42,8.7,8.13,4.02,4.11,8.33,8.3,12.94,12.53,3.41,3.12,6.77,6.08,10.08,8.89.71-.41.82-5.18.17-10.47-1.12-9.04-7.46-14.34-9.41-16.1-2.73-2.46-5.41-3.98-7.32-4.9-.86-.44-2.15-1.02-3.78-1.48-3.56-1.01-6.4-.78-8.58-.59Z"/>
      <path class="cls-2" d="M233.51,21.93c-21.81,3.24-39.87,42.75-35.12,54.25.44,1.07,2.19,4.57,2.77,4.38.45-.15-.37-2.25.64-3.53.26-.34,1.32-1.46,5.21-.79,7.55,1.3,13.46,7.28,16.35,10.27.74.76,5.37,5.63,6.56,11.14.38,1.77.27,2.96-.38,3.77-1.24,1.55-4.02,1.12-4.1,1.75-.05.43,1.23.99,2.28,1.28,7.05,1.99,15.59-1.96,15.59-1.96,4.95-2.29,28.59-13.32,34.84-36.12.8-2.93,1.29-5.04.91-7.16-1.42-7.89-7.36-9.7-19.93-22.09-8.83-8.7-11.99-14.16-19.79-15.26-2.69-.38-4.79-.08-5.83.07ZM257.77,47.56c2.92,4.71,4.46,11.14,3.54,14.49-.84,3.07-5.53,8.1-10.43,10.66-4.71,2.92-11.14,4.46-14.49,3.54-7.82-2.14-16.27-17.38-14.12-25.2,2.3-8.38,15.9-16.37,24.01-14.15,3.63,1,8.94,5.75,11.5,10.66Z"/>
      <path class="cls-5" d="M234.97,45.22c-8.7,5.43-9.62,12.08-3.18,19.26,10.48,12.19,29.02.44,21.82-13.85-4.31-8.39-11.02-10.23-18.65-5.41Z"/>
      <path class="cls-4" d="M217.97,20.99c-1.2-2.81-28.28-.29-42.12,18.9-3.28,4.54-5.09,9.03-6.15,12.47.07,1.07.43,1.52.73,1.74,1.55,1.08,4.53-2,11.43-5.12,2.27-1.02,3.4-1.53,4.98-1.94,2.89-.74,4.31-.56,7.09-1.65.91-.36,1.86-.87,2.96-1.66,3.45-2.48,3.26-4.04,7.54-9.44,7.84-9.91,14.16-11.84,13.53-13.3Z"/>
      <path class="cls-4" d="M282.69,72.59c2.15.17,8.74,26.61-4.47,41.56-9.29,10.51-25.48,12.07-26.78,9.64-.84-1.57,4.84-4.24,9.86-13.78,1.99-3.79,2.07-5.75,4.86-10.51.73-1.25.97-1.55,5.44-7.85,5.92-8.35,6.68-9.5,7.69-11.45,2.77-5.32,2.76-7.65,3.4-7.6Z"/>
      <path class="cls-3" d="M174.04,111.22c2.34-.43,4.23.27,5.02.61-2.09,2.13-5.87,6.55-8.02,13.31-2.26,7.09-1.59,13.15-1.06,16.11,1.72-2.39,4.46-5.56,8.54-8.33,7.59-5.15,15.28-5.86,18.83-5.95.83.11,2.87.52,3.97,2.14,1.62,2.37.74,6.64-2.89,9.59-.75.62-1.5,1.24-2.25,1.86,2.05-.2,16.44-1.81,24.63-14.28,6.75-10.26,8.26-26.3-1.7-37.1-8.75-9.48-23.03-11.33-34.16-6.05-11.89,5.64-18.84,18.79-16.88,32.32.3-.51,2.2-3.55,5.97-4.23Z"/>
    </g>
  </g>
  <g id="Calque_9" data-name="Calque 9">
    <rect class="cls-4" x="103.43" y="158.06" width="81.81" height="30.79" transform="translate(-81.26 168.32) rotate(-48.93)"/>
  </g>
</svg>