<svg version="1.0" xmlns="http://www.w3.org/2000/svg"
 width="300.000000pt" height="300.000000pt" viewBox="0 0 300.000000 300.000000"
 preserveAspectRatio="xMidYMid meet">
<g transform="translate(-30.000000,330.000000) scale(0.120000,-0.120000)"
fill="#FFFFFF" stroke="none">
<path d="M1910 2253 c-8 -2 -21 -6 -28 -9 -8 -2 19 -21 60 -42 40 -21 75 -37
77 -36 2 2 -2 18 -9 35 -9 20 -26 37 -46 45 -19 8 -35 14 -36 13 -2 0 -10 -3
-18 -6z"/>
<path d="M1825 2209 c-52 -41 -85 -173 -55 -219 8 -13 10 -12 10 3 0 26 40 22
86 -9 21 -15 41 -28 43 -30 2 -2 -2 -10 -9 -19 -20 -24 4 -17 47 14 46 33 83
101 83 152 0 33 -3 36 -90 80 -90 46 -91 46 -115 28z m120 -64 c14 -13 25 -33
25 -45 0 -11 -11 -32 -25 -45 -13 -14 -33 -25 -45 -25 -28 0 -70 43 -70 71 0
30 38 69 67 69 13 0 35 -11 48 -25z"/>
<path d="M1867 2132 c-24 -26 -21 -49 7 -67 46 -31 97 25 60 66 -22 24 -46 24
-67 1z"/>
<path d="M1716 2170 c-35 -23 -52 -51 -61 -105 l-7 -40 30 33 c17 17 35 32 41
32 5 0 21 23 35 50 22 44 23 50 8 50 -9 0 -30 -9 -46 -20z"/>
<path d="M1060 2121 c-20 -10 -44 -36 -57 -61 -23 -43 -23 -45 -22 -454 l0
-411 23 76 c35 120 74 187 155 268 l74 75 -6 78 c-3 43 -3 78 -1 78 2 0 30
-26 60 -59 l54 -59 106 44 c58 24 112 44 120 44 8 0 14 3 14 6 0 13 -347 367
-372 380 -38 20 -107 17 -148 -5z m291 -183 c87 -90 157 -167 156 -172 -2 -5
-37 -21 -79 -37 l-76 -28 -44 40 c-54 49 -74 56 -99 33 -15 -13 -19 -31 -19
-81 0 -62 -1 -64 -52 -121 -29 -31 -68 -75 -85 -97 l-33 -40 3 304 2 303 35
29 c27 23 44 29 83 29 l50 0 158 -162z"/>
<path d="M2040 2044 c0 -11 -7 -29 -15 -40 -9 -12 -14 -42 -14 -79 l0 -60 29
35 c24 27 30 44 30 80 0 25 -7 55 -15 66 -14 19 -14 19 -15 -2z"/>
<path d="M1722 2023 c-8 -14 -12 -89 -12 -219 l0 -198 -50 56 -51 57 -33 -19
c-18 -11 -80 -35 -139 -54 -227 -72 -310 -167 -384 -438 -4 -15 3 -18 41 -18
45 0 46 1 46 33 0 49 27 144 57 199 37 67 111 139 180 173 97 47 256 46 296
-4 10 -13 9 -13 -8 -5 -35 16 -147 11 -193 -10 l-41 -19 130 -137 c71 -76 146
-146 166 -155 46 -22 120 -16 160 13 60 42 63 61 63 366 0 152 -3 276 -7 276
-5 0 -17 -7 -27 -15 -25 -19 -36 -19 -36 0 0 8 -7 16 -15 17 -8 0 -20 1 -26 2
-6 1 -21 -24 -34 -54 -13 -30 -30 -56 -39 -58 -17 -4 -22 23 -7 33 5 3 20 25
34 49 27 48 21 66 -20 66 -17 0 -23 6 -24 23 0 12 -4 31 -8 42 -8 19 -8 19
-19 -2z m138 -129 c0 -15 -22 -44 -31 -39 -11 7 7 45 21 45 6 0 10 -3 10 -6z
m56 -264 c1 -124 -2 -239 -8 -257 -21 -72 -100 -102 -172 -68 -28 13 -225 212
-234 235 -4 10 87 29 136 29 45 0 102 43 103 79 1 15 2 49 3 75 1 44 4 50 32
62 17 7 34 20 37 29 4 9 13 16 20 16 8 0 20 7 27 15 7 9 23 15 34 13 21 -3 21
-8 22 -228z"/>
<path d="M1800 1982 c0 -9 54 -42 69 -42 24 0 9 22 -24 36 -40 16 -45 17 -45
6z"/>
<path d="M1318 1508 c-58 -63 -98 -173 -98 -273 0 -45 0 -45 35 -45 34 0 35 1
28 28 -16 57 -6 169 22 229 14 32 33 65 42 75 9 10 13 18 9 18 -5 0 -21 -14
-38 -32z"/>
</g>
</svg>